# xmcd CD database file
#
# Track frame offsets:
#	183
#	17875
#	28368
#	43498
#	57570
#	69698
#	82145
#	92785
#	103153
#	115755
#	130135
#	144505
#	161188
#	172350
#
# Disc length: 2480 seconds
#
# Revision: 1
# Processed by: cddbd v1.5.2PL0 Copyright (c) Steve Scherf et al.
# Submitted via: jetAudio 7
#
DISCID=de09ae0e
DTITLE=Various Artist - Stars and Trucks Vol. 9
DYEAR=1992
DGENRE=Country
TTITLE0=Partners, Brothers, Friends
TTITLE1=Let Your Love Flow
TTITLE2=Detroit City
TTITLE3=Jambalaya
TTITLE4=Hobo Heaven
TTITLE5=Don't The Girls All Get Prettier At Closing Time
TTITLE6=Louisiana Saturday Night
TTITLE7=Walk On By
TTITLE8=Takin' Country To The City
TTITLE9=San Antonio Nights
TTITLE10=Evangelina
TTITLE11=Sweet Country Music
TTITLE12=Ravishing Ruby
TTITLE13=Tequila Sheila
EXTD=
EXTT0=
EXTT1=
EXTT2=
EXTT3=
EXTT4=
EXTT5=
EXTT6=
EXTT7=
EXTT8=
EXTT9=
EXTT10=
EXTT11=
EXTT12=
EXTT13=
PLAYORDER=
